<mxfile host="65bd71144e">
    <diagram id="5GWiScpcUFfCtxOHJy0Y" name="Page-1">
        <mxGraphModel dx="837" dy="333" grid="1" gridSize="10" guides="1" tooltips="1" connect="1" arrows="1" fold="1" page="1" pageScale="1" pageWidth="850" pageHeight="1100" math="0" shadow="0">
            <root>
                <mxCell id="0"/>
                <mxCell id="1" parent="0"/>
                <mxCell id="2" value="1" style="text;html=1;align=center;verticalAlign=middle;resizable=0;points=[];autosize=1;strokeColor=none;fillColor=none;fontSize=20;" parent="1" vertex="1">
                    <mxGeometry x="110" y="45" width="30" height="40" as="geometry"/>
                </mxCell>
                <mxCell id="3" value="" style="group;strokeColor=default;strokeWidth=2;" parent="1" vertex="1" connectable="0">
                    <mxGeometry x="150" y="40" width="330" height="50" as="geometry"/>
                </mxCell>
                <mxCell id="4" value="&lt;font style=&quot;font-size: 20px;&quot;&gt;64&lt;/font&gt;" style="ellipse;whiteSpace=wrap;html=1;" parent="3" vertex="1">
                    <mxGeometry width="50" height="50" as="geometry"/>
                </mxCell>
                <mxCell id="16" style="edgeStyle=none;html=1;exitX=0.5;exitY=1;exitDx=0;exitDy=0;entryX=0.5;entryY=1;entryDx=0;entryDy=0;" parent="3" source="5" target="4" edge="1">
                    <mxGeometry relative="1" as="geometry">
                        <Array as="points">
                            <mxPoint x="60" y="70"/>
                        </Array>
                    </mxGeometry>
                </mxCell>
                <mxCell id="5" value="&lt;font style=&quot;font-size: 20px;&quot;&gt;25&lt;/font&gt;" style="ellipse;whiteSpace=wrap;html=1;" parent="3" vertex="1">
                    <mxGeometry x="70" width="50" height="50" as="geometry"/>
                </mxCell>
                <mxCell id="6" value="&lt;font style=&quot;font-size: 20px;&quot;&gt;12&lt;/font&gt;" style="ellipse;whiteSpace=wrap;html=1;" parent="3" vertex="1">
                    <mxGeometry x="140" width="50" height="50" as="geometry"/>
                </mxCell>
                <mxCell id="7" value="&lt;font style=&quot;font-size: 20px;&quot;&gt;22&lt;/font&gt;" style="ellipse;whiteSpace=wrap;html=1;" parent="3" vertex="1">
                    <mxGeometry x="210" width="50" height="50" as="geometry"/>
                </mxCell>
                <mxCell id="8" value="&lt;font style=&quot;font-size: 20px;&quot;&gt;11&lt;/font&gt;" style="ellipse;whiteSpace=wrap;html=1;" parent="3" vertex="1">
                    <mxGeometry x="280" width="50" height="50" as="geometry"/>
                </mxCell>
                <mxCell id="9" value="2" style="text;html=1;align=center;verticalAlign=middle;resizable=0;points=[];autosize=1;strokeColor=none;fillColor=none;fontSize=20;" parent="1" vertex="1">
                    <mxGeometry x="110" y="135" width="30" height="40" as="geometry"/>
                </mxCell>
                <mxCell id="10" value="" style="group;strokeColor=default;strokeWidth=2;" parent="1" vertex="1" connectable="0">
                    <mxGeometry x="150" y="130" width="330" height="50" as="geometry"/>
                </mxCell>
                <mxCell id="11" value="&lt;font style=&quot;font-size: 20px;&quot;&gt;25&lt;/font&gt;" style="ellipse;whiteSpace=wrap;html=1;" parent="10" vertex="1">
                    <mxGeometry width="50" height="50" as="geometry"/>
                </mxCell>
                <mxCell id="12" value="&lt;font style=&quot;font-size: 20px;&quot;&gt;64&lt;/font&gt;" style="ellipse;whiteSpace=wrap;html=1;" parent="10" vertex="1">
                    <mxGeometry x="70" width="50" height="50" as="geometry"/>
                </mxCell>
                <mxCell id="24" style="edgeStyle=none;html=1;exitX=0.5;exitY=1;exitDx=0;exitDy=0;entryX=0.5;entryY=1;entryDx=0;entryDy=0;" parent="10" source="13" target="12" edge="1">
                    <mxGeometry relative="1" as="geometry">
                        <Array as="points">
                            <mxPoint x="130" y="70"/>
                        </Array>
                    </mxGeometry>
                </mxCell>
                <mxCell id="13" value="&lt;font style=&quot;font-size: 20px;&quot;&gt;12&lt;/font&gt;" style="ellipse;whiteSpace=wrap;html=1;" parent="10" vertex="1">
                    <mxGeometry x="140" width="50" height="50" as="geometry"/>
                </mxCell>
                <mxCell id="14" value="&lt;font style=&quot;font-size: 20px;&quot;&gt;22&lt;/font&gt;" style="ellipse;whiteSpace=wrap;html=1;" parent="10" vertex="1">
                    <mxGeometry x="210" width="50" height="50" as="geometry"/>
                </mxCell>
                <mxCell id="15" value="&lt;font style=&quot;font-size: 20px;&quot;&gt;11&lt;/font&gt;" style="ellipse;whiteSpace=wrap;html=1;" parent="10" vertex="1">
                    <mxGeometry x="280" width="50" height="50" as="geometry"/>
                </mxCell>
                <mxCell id="18" value="" style="group;strokeColor=default;strokeWidth=2;" parent="1" vertex="1" connectable="0">
                    <mxGeometry x="150" y="220" width="330" height="50" as="geometry"/>
                </mxCell>
                <mxCell id="19" value="&lt;font style=&quot;font-size: 20px;&quot;&gt;25&lt;/font&gt;" style="ellipse;whiteSpace=wrap;html=1;" parent="18" vertex="1">
                    <mxGeometry width="50" height="50" as="geometry"/>
                </mxCell>
                <mxCell id="20" value="&lt;font style=&quot;font-size: 20px;&quot;&gt;12&lt;/font&gt;" style="ellipse;whiteSpace=wrap;html=1;" parent="18" vertex="1">
                    <mxGeometry x="70" width="50" height="50" as="geometry"/>
                </mxCell>
                <mxCell id="21" value="&lt;font style=&quot;font-size: 20px;&quot;&gt;64&lt;/font&gt;" style="ellipse;whiteSpace=wrap;html=1;" parent="18" vertex="1">
                    <mxGeometry x="140" width="50" height="50" as="geometry"/>
                </mxCell>
                <mxCell id="22" value="&lt;font style=&quot;font-size: 20px;&quot;&gt;22&lt;/font&gt;" style="ellipse;whiteSpace=wrap;html=1;" parent="18" vertex="1">
                    <mxGeometry x="210" width="50" height="50" as="geometry"/>
                </mxCell>
                <mxCell id="23" value="&lt;font style=&quot;font-size: 20px;&quot;&gt;11&lt;/font&gt;" style="ellipse;whiteSpace=wrap;html=1;" parent="18" vertex="1">
                    <mxGeometry x="280" width="50" height="50" as="geometry"/>
                </mxCell>
                <mxCell id="25" value="3" style="text;html=1;align=center;verticalAlign=middle;resizable=0;points=[];autosize=1;strokeColor=none;fillColor=none;fontSize=20;" parent="1" vertex="1">
                    <mxGeometry x="110" y="315" width="30" height="40" as="geometry"/>
                </mxCell>
                <mxCell id="26" value="" style="group;strokeColor=default;strokeWidth=2;" parent="1" vertex="1" connectable="0">
                    <mxGeometry x="150" y="310" width="330" height="50" as="geometry"/>
                </mxCell>
                <mxCell id="27" value="&lt;font style=&quot;font-size: 20px;&quot;&gt;12&lt;/font&gt;" style="ellipse;whiteSpace=wrap;html=1;" parent="26" vertex="1">
                    <mxGeometry width="50" height="50" as="geometry"/>
                </mxCell>
                <mxCell id="28" value="&lt;font style=&quot;font-size: 20px;&quot;&gt;25&lt;/font&gt;" style="ellipse;whiteSpace=wrap;html=1;" parent="26" vertex="1">
                    <mxGeometry x="70" width="50" height="50" as="geometry"/>
                </mxCell>
                <mxCell id="29" value="&lt;font style=&quot;font-size: 20px;&quot;&gt;64&lt;/font&gt;" style="ellipse;whiteSpace=wrap;html=1;" parent="26" vertex="1">
                    <mxGeometry x="140" width="50" height="50" as="geometry"/>
                </mxCell>
                <mxCell id="40" style="edgeStyle=none;html=1;exitX=0.5;exitY=1;exitDx=0;exitDy=0;entryX=0.5;entryY=1;entryDx=0;entryDy=0;" parent="26" source="30" target="29" edge="1">
                    <mxGeometry relative="1" as="geometry">
                        <Array as="points">
                            <mxPoint x="200" y="70"/>
                        </Array>
                    </mxGeometry>
                </mxCell>
                <mxCell id="30" value="&lt;font style=&quot;font-size: 20px;&quot;&gt;22&lt;/font&gt;" style="ellipse;whiteSpace=wrap;html=1;" parent="26" vertex="1">
                    <mxGeometry x="210" width="50" height="50" as="geometry"/>
                </mxCell>
                <mxCell id="31" value="&lt;font style=&quot;font-size: 20px;&quot;&gt;11&lt;/font&gt;" style="ellipse;whiteSpace=wrap;html=1;" parent="26" vertex="1">
                    <mxGeometry x="280" width="50" height="50" as="geometry"/>
                </mxCell>
                <mxCell id="32" style="edgeStyle=none;html=1;exitX=0.5;exitY=1;exitDx=0;exitDy=0;" parent="1" source="20" edge="1">
                    <mxGeometry relative="1" as="geometry">
                        <mxPoint x="170" y="270" as="targetPoint"/>
                        <Array as="points">
                            <mxPoint x="210" y="290"/>
                        </Array>
                    </mxGeometry>
                </mxCell>
                <mxCell id="34" value="" style="group;strokeColor=default;strokeWidth=2;" parent="1" vertex="1" connectable="0">
                    <mxGeometry x="150" y="400" width="330" height="50" as="geometry"/>
                </mxCell>
                <mxCell id="35" value="&lt;font style=&quot;font-size: 20px;&quot;&gt;12&lt;/font&gt;" style="ellipse;whiteSpace=wrap;html=1;" parent="34" vertex="1">
                    <mxGeometry width="50" height="50" as="geometry"/>
                </mxCell>
                <mxCell id="36" value="&lt;font style=&quot;font-size: 20px;&quot;&gt;25&lt;/font&gt;" style="ellipse;whiteSpace=wrap;html=1;" parent="34" vertex="1">
                    <mxGeometry x="70" width="50" height="50" as="geometry"/>
                </mxCell>
                <mxCell id="41" style="edgeStyle=none;html=1;exitX=0.5;exitY=1;exitDx=0;exitDy=0;entryX=0.5;entryY=1;entryDx=0;entryDy=0;" parent="34" source="37" target="36" edge="1">
                    <mxGeometry relative="1" as="geometry">
                        <Array as="points">
                            <mxPoint x="130" y="70"/>
                        </Array>
                    </mxGeometry>
                </mxCell>
                <mxCell id="37" value="&lt;font style=&quot;font-size: 20px;&quot;&gt;22&lt;/font&gt;" style="ellipse;whiteSpace=wrap;html=1;" parent="34" vertex="1">
                    <mxGeometry x="140" width="50" height="50" as="geometry"/>
                </mxCell>
                <mxCell id="38" value="&lt;font style=&quot;font-size: 20px;&quot;&gt;64&lt;/font&gt;" style="ellipse;whiteSpace=wrap;html=1;" parent="34" vertex="1">
                    <mxGeometry x="210" width="50" height="50" as="geometry"/>
                </mxCell>
                <mxCell id="39" value="&lt;font style=&quot;font-size: 20px;&quot;&gt;11&lt;/font&gt;" style="ellipse;whiteSpace=wrap;html=1;" parent="34" vertex="1">
                    <mxGeometry x="280" width="50" height="50" as="geometry"/>
                </mxCell>
                <mxCell id="42" value="4" style="text;html=1;align=center;verticalAlign=middle;resizable=0;points=[];autosize=1;strokeColor=none;fillColor=none;fontSize=20;" parent="1" vertex="1">
                    <mxGeometry x="110" y="485" width="30" height="40" as="geometry"/>
                </mxCell>
                <mxCell id="43" value="" style="group;strokeColor=default;strokeWidth=2;" parent="1" vertex="1" connectable="0">
                    <mxGeometry x="150" y="480" width="330" height="50" as="geometry"/>
                </mxCell>
                <mxCell id="44" value="&lt;font style=&quot;font-size: 20px;&quot;&gt;12&lt;/font&gt;" style="ellipse;whiteSpace=wrap;html=1;" parent="43" vertex="1">
                    <mxGeometry width="50" height="50" as="geometry"/>
                </mxCell>
                <mxCell id="50" style="edgeStyle=none;html=1;exitX=0.5;exitY=1;exitDx=0;exitDy=0;entryX=0.5;entryY=1;entryDx=0;entryDy=0;dashed=1;" parent="43" source="45" target="44" edge="1">
                    <mxGeometry relative="1" as="geometry">
                        <Array as="points">
                            <mxPoint x="60" y="70"/>
                        </Array>
                    </mxGeometry>
                </mxCell>
                <mxCell id="45" value="&lt;font style=&quot;font-size: 20px;&quot;&gt;22&lt;/font&gt;" style="ellipse;whiteSpace=wrap;html=1;" parent="43" vertex="1">
                    <mxGeometry x="70" width="50" height="50" as="geometry"/>
                </mxCell>
                <mxCell id="47" value="&lt;font style=&quot;font-size: 20px;&quot;&gt;25&lt;/font&gt;" style="ellipse;whiteSpace=wrap;html=1;" parent="43" vertex="1">
                    <mxGeometry x="140" width="50" height="50" as="geometry"/>
                </mxCell>
                <mxCell id="48" value="&lt;font style=&quot;font-size: 20px;&quot;&gt;64&lt;/font&gt;" style="ellipse;whiteSpace=wrap;html=1;" parent="43" vertex="1">
                    <mxGeometry x="210" width="50" height="50" as="geometry"/>
                </mxCell>
                <mxCell id="49" value="&lt;font style=&quot;font-size: 20px;&quot;&gt;11&lt;/font&gt;" style="ellipse;whiteSpace=wrap;html=1;" parent="43" vertex="1">
                    <mxGeometry x="280" width="50" height="50" as="geometry"/>
                </mxCell>
                <mxCell id="51" value="5" style="text;html=1;align=center;verticalAlign=middle;resizable=0;points=[];autosize=1;strokeColor=none;fillColor=none;fontSize=20;" parent="1" vertex="1">
                    <mxGeometry x="110" y="565" width="30" height="40" as="geometry"/>
                </mxCell>
                <mxCell id="52" value="" style="group;strokeColor=default;strokeWidth=2;" parent="1" vertex="1" connectable="0">
                    <mxGeometry x="150" y="560" width="330" height="50" as="geometry"/>
                </mxCell>
                <mxCell id="53" value="&lt;font style=&quot;font-size: 20px;&quot;&gt;12&lt;/font&gt;" style="ellipse;whiteSpace=wrap;html=1;" parent="52" vertex="1">
                    <mxGeometry width="50" height="50" as="geometry"/>
                </mxCell>
                <mxCell id="55" value="&lt;font style=&quot;font-size: 20px;&quot;&gt;22&lt;/font&gt;" style="ellipse;whiteSpace=wrap;html=1;" parent="52" vertex="1">
                    <mxGeometry x="70" width="50" height="50" as="geometry"/>
                </mxCell>
                <mxCell id="56" value="&lt;font style=&quot;font-size: 20px;&quot;&gt;25&lt;/font&gt;" style="ellipse;whiteSpace=wrap;html=1;" parent="52" vertex="1">
                    <mxGeometry x="140" width="50" height="50" as="geometry"/>
                </mxCell>
                <mxCell id="57" value="&lt;font style=&quot;font-size: 20px;&quot;&gt;64&lt;/font&gt;" style="ellipse;whiteSpace=wrap;html=1;" parent="52" vertex="1">
                    <mxGeometry x="210" width="50" height="50" as="geometry"/>
                </mxCell>
                <mxCell id="59" style="edgeStyle=none;html=1;exitX=0.5;exitY=1;exitDx=0;exitDy=0;entryX=0.5;entryY=1;entryDx=0;entryDy=0;" parent="52" source="58" target="57" edge="1">
                    <mxGeometry relative="1" as="geometry">
                        <Array as="points">
                            <mxPoint x="270" y="70"/>
                        </Array>
                    </mxGeometry>
                </mxCell>
                <mxCell id="58" value="&lt;font style=&quot;font-size: 20px;&quot;&gt;11&lt;/font&gt;" style="ellipse;whiteSpace=wrap;html=1;" parent="52" vertex="1">
                    <mxGeometry x="280" width="50" height="50" as="geometry"/>
                </mxCell>
                <mxCell id="61" value="" style="group;strokeColor=default;strokeWidth=2;" parent="1" vertex="1" connectable="0">
                    <mxGeometry x="150" y="640" width="330" height="50" as="geometry"/>
                </mxCell>
                <mxCell id="62" value="&lt;font style=&quot;font-size: 20px;&quot;&gt;12&lt;/font&gt;" style="ellipse;whiteSpace=wrap;html=1;" parent="61" vertex="1">
                    <mxGeometry width="50" height="50" as="geometry"/>
                </mxCell>
                <mxCell id="63" value="&lt;font style=&quot;font-size: 20px;&quot;&gt;22&lt;/font&gt;" style="ellipse;whiteSpace=wrap;html=1;" parent="61" vertex="1">
                    <mxGeometry x="70" width="50" height="50" as="geometry"/>
                </mxCell>
                <mxCell id="64" value="&lt;font style=&quot;font-size: 20px;&quot;&gt;25&lt;/font&gt;" style="ellipse;whiteSpace=wrap;html=1;" parent="61" vertex="1">
                    <mxGeometry x="140" width="50" height="50" as="geometry"/>
                </mxCell>
                <mxCell id="75" style="edgeStyle=none;html=1;exitX=0.5;exitY=1;exitDx=0;exitDy=0;entryX=0.5;entryY=1;entryDx=0;entryDy=0;" parent="61" source="65" target="64" edge="1">
                    <mxGeometry relative="1" as="geometry">
                        <Array as="points">
                            <mxPoint x="200" y="70"/>
                        </Array>
                    </mxGeometry>
                </mxCell>
                <mxCell id="65" value="&lt;font style=&quot;font-size: 20px;&quot;&gt;11&lt;/font&gt;" style="ellipse;whiteSpace=wrap;html=1;" parent="61" vertex="1">
                    <mxGeometry x="210" width="50" height="50" as="geometry"/>
                </mxCell>
                <mxCell id="67" value="&lt;font style=&quot;font-size: 20px;&quot;&gt;64&lt;/font&gt;" style="ellipse;whiteSpace=wrap;html=1;" parent="61" vertex="1">
                    <mxGeometry x="280" width="50" height="50" as="geometry"/>
                </mxCell>
                <mxCell id="69" value="" style="group;strokeColor=default;strokeWidth=2;" parent="1" vertex="1" connectable="0">
                    <mxGeometry x="150" y="720" width="330" height="50" as="geometry"/>
                </mxCell>
                <mxCell id="70" value="&lt;font style=&quot;font-size: 20px;&quot;&gt;12&lt;/font&gt;" style="ellipse;whiteSpace=wrap;html=1;" parent="69" vertex="1">
                    <mxGeometry width="50" height="50" as="geometry"/>
                </mxCell>
                <mxCell id="71" value="&lt;font style=&quot;font-size: 20px;&quot;&gt;22&lt;/font&gt;" style="ellipse;whiteSpace=wrap;html=1;" parent="69" vertex="1">
                    <mxGeometry x="70" width="50" height="50" as="geometry"/>
                </mxCell>
                <mxCell id="83" style="edgeStyle=none;html=1;exitX=0.5;exitY=1;exitDx=0;exitDy=0;entryX=0.5;entryY=1;entryDx=0;entryDy=0;" parent="69" source="72" target="71" edge="1">
                    <mxGeometry relative="1" as="geometry">
                        <Array as="points">
                            <mxPoint x="130" y="70"/>
                        </Array>
                    </mxGeometry>
                </mxCell>
                <mxCell id="72" value="&lt;font style=&quot;font-size: 20px;&quot;&gt;11&lt;/font&gt;" style="ellipse;whiteSpace=wrap;html=1;" parent="69" vertex="1">
                    <mxGeometry x="140" width="50" height="50" as="geometry"/>
                </mxCell>
                <mxCell id="73" value="&lt;font style=&quot;font-size: 20px;&quot;&gt;25&lt;/font&gt;" style="ellipse;whiteSpace=wrap;html=1;" parent="69" vertex="1">
                    <mxGeometry x="210" width="50" height="50" as="geometry"/>
                </mxCell>
                <mxCell id="74" value="&lt;font style=&quot;font-size: 20px;&quot;&gt;64&lt;/font&gt;" style="ellipse;whiteSpace=wrap;html=1;" parent="69" vertex="1">
                    <mxGeometry x="280" width="50" height="50" as="geometry"/>
                </mxCell>
                <mxCell id="76" value="" style="group;strokeColor=default;strokeWidth=2;" parent="1" vertex="1" connectable="0">
                    <mxGeometry x="150" y="800" width="330" height="50" as="geometry"/>
                </mxCell>
                <mxCell id="77" value="&lt;font style=&quot;font-size: 20px;&quot;&gt;12&lt;/font&gt;" style="ellipse;whiteSpace=wrap;html=1;" parent="76" vertex="1">
                    <mxGeometry width="50" height="50" as="geometry"/>
                </mxCell>
                <mxCell id="91" style="edgeStyle=none;html=1;exitX=0.5;exitY=1;exitDx=0;exitDy=0;entryX=0.5;entryY=1;entryDx=0;entryDy=0;" parent="76" source="78" target="77" edge="1">
                    <mxGeometry relative="1" as="geometry">
                        <Array as="points">
                            <mxPoint x="60" y="70"/>
                        </Array>
                    </mxGeometry>
                </mxCell>
                <mxCell id="78" value="&lt;font style=&quot;font-size: 20px;&quot;&gt;11&lt;/font&gt;" style="ellipse;whiteSpace=wrap;html=1;" parent="76" vertex="1">
                    <mxGeometry x="70" width="50" height="50" as="geometry"/>
                </mxCell>
                <mxCell id="79" value="&lt;font style=&quot;font-size: 20px;&quot;&gt;22&lt;/font&gt;" style="ellipse;whiteSpace=wrap;html=1;" parent="76" vertex="1">
                    <mxGeometry x="140" width="50" height="50" as="geometry"/>
                </mxCell>
                <mxCell id="80" value="&lt;font style=&quot;font-size: 20px;&quot;&gt;25&lt;/font&gt;" style="ellipse;whiteSpace=wrap;html=1;" parent="76" vertex="1">
                    <mxGeometry x="210" width="50" height="50" as="geometry"/>
                </mxCell>
                <mxCell id="81" value="&lt;font style=&quot;font-size: 20px;&quot;&gt;64&lt;/font&gt;" style="ellipse;whiteSpace=wrap;html=1;" parent="76" vertex="1">
                    <mxGeometry x="280" width="50" height="50" as="geometry"/>
                </mxCell>
                <mxCell id="84" value="" style="group;strokeColor=default;strokeWidth=2;" parent="1" vertex="1" connectable="0">
                    <mxGeometry x="150" y="880" width="330" height="50" as="geometry"/>
                </mxCell>
                <mxCell id="85" value="&lt;font style=&quot;font-size: 20px;&quot;&gt;11&lt;/font&gt;" style="ellipse;whiteSpace=wrap;html=1;" parent="84" vertex="1">
                    <mxGeometry width="50" height="50" as="geometry"/>
                </mxCell>
                <mxCell id="86" value="&lt;font style=&quot;font-size: 20px;&quot;&gt;12&lt;/font&gt;" style="ellipse;whiteSpace=wrap;html=1;" parent="84" vertex="1">
                    <mxGeometry x="70" width="50" height="50" as="geometry"/>
                </mxCell>
                <mxCell id="87" value="&lt;font style=&quot;font-size: 20px;&quot;&gt;22&lt;/font&gt;" style="ellipse;whiteSpace=wrap;html=1;" parent="84" vertex="1">
                    <mxGeometry x="140" width="50" height="50" as="geometry"/>
                </mxCell>
                <mxCell id="88" value="&lt;font style=&quot;font-size: 20px;&quot;&gt;25&lt;/font&gt;" style="ellipse;whiteSpace=wrap;html=1;" parent="84" vertex="1">
                    <mxGeometry x="210" width="50" height="50" as="geometry"/>
                </mxCell>
                <mxCell id="89" value="&lt;font style=&quot;font-size: 20px;&quot;&gt;64&lt;/font&gt;" style="ellipse;whiteSpace=wrap;html=1;" parent="84" vertex="1">
                    <mxGeometry x="280" width="50" height="50" as="geometry"/>
                </mxCell>
                <mxCell id="90" value="6" style="text;html=1;align=center;verticalAlign=middle;resizable=0;points=[];autosize=1;strokeColor=none;fillColor=none;fontSize=20;" parent="1" vertex="1">
                    <mxGeometry x="110" y="885" width="30" height="40" as="geometry"/>
                </mxCell>
            </root>
        </mxGraphModel>
    </diagram>
</mxfile>